# xmcd
#
# Track frame offsets:
# 150
# 17487
# 35080
# 45992
# 60545
# 74762
# 90375
# 105117
# 118280
# 133992
# 147212
# 164960
# 169902
# 182942
# 195227
# 208897
# 222772
#
# Disc length: 3105 seconds
#
#
# Revision: 0
# Processed by: cddbd v1.5.1PL2 Copyright (c) Steve Scherf et al.
# Submitted via: FreeRIP 2.944 
#
DISCID=000c1f11
DTITLE=Grece - Adio Acropolis
DYEAR=1900
DGENRE=Country
TTITLE0=Akropolis Adieu
TTITLE1=Zorbas
TTITLE2=Psarovarka
TTITLE3=Dimitroula
TTITLE4=Ta Pedia Tou Pireas
TTITLE5=Ta Pedia Tis Aminas
TTITLE6=Strose To Stroma  Sou
TTITLE7=Stin Taverna
TTITLE8=Ena  To Helidoni
TTITLE9=Garsona
TTITLE10=Thalasa Mou
TTITLE11=Varka Sto Gialo
TTITLE12=Summer Time
TTITLE13=Gremismena Spitia
TTITLE14=Ballos
TTITLE15=Doxa To Theo
TTITLE16=Light And Sound
EXTD=
EXTT0=
EXTT1=
EXTT2=
EXTT3=
EXTT4=
EXTT5=
EXTT6=
EXTT7=
EXTT8=
EXTT9=
EXTT10=
EXTT11=
EXTT12=
EXTT13=
EXTT14=
EXTT15=
EXTT16=
PLAYORDER=
